<svg xmlns="http://www.w3.org/2000/svg" width="20" height="20" viewBox="0 0 20 20">
  <g id="Group_79349" data-name="Group 79349" transform="translate(-227.5 -14.78)">
    <rect id="Rectangle_6528" data-name="Rectangle 6528" width="20" height="20" transform="translate(227.5 14.78)" fill="#fff"/>
    <g id="_000000ff" data-name="#000000ff" transform="translate(190.241 -2.396)">
      <path id="Path_35246" data-name="Path 35246" d="M47.1,18.185a.343.343,0,0,1,.267.046c.932.514,1.852,1.047,2.775,1.576.812.466,1.62.937,2.431,1.4.786.461,1.575.916,2.356,1.386.057.035.124.072.142.142a3.1,3.1,0,0,1,.044.452c.014,1.1.007,2.2.009,3.3q0,2.037,0,4.074c0,.294,0,.588-.013.881-.024.16.025.381-.145.476-.528.336-1.071.648-1.612.964q-2.12,1.233-4.258,2.436c-.612.342-1.221.693-1.846,1.012-.069.045-.139-.015-.2-.042-.773-.407-1.531-.843-2.294-1.27-1.538-.874-3.076-1.75-4.6-2.65-.221-.13-.44-.262-.658-.4-.067-.047-.155-.083-.183-.166a2.927,2.927,0,0,1-.045-.471c-.011-.345-.007-.69-.009-1.035q0-2.676,0-5.351c0-.58,0-1.16.009-1.74a3.113,3.113,0,0,1,.047-.479c.021-.073.094-.106.153-.144,1.146-.687,2.3-1.356,3.458-2.028,1.316-.76,2.628-1.526,3.953-2.27a1.351,1.351,0,0,1,.222-.108m.027,1c-.333.175-.659.362-.985.547-.551.318-1.1.632-1.649.961a.846.846,0,0,0,.183.143c.56.363,1.136.7,1.709,1.046,1.2.71,2.4,1.418,3.609,2.111.3.169.6.344.912.493.059.024.13.07.192.026.562-.323,1.122-.651,1.685-.975a9.747,9.747,0,0,0,.959-.609,1.6,1.6,0,0,0-.185-.118c-1.15-.674-2.305-1.339-3.459-2.006-.939-.538-1.875-1.081-2.825-1.6a.147.147,0,0,0-.146-.021m-3.635,2.084c-.342.183-.677.378-1.014.57-.6.352-1.205.689-1.793,1.058,0,.063.056.1.1.133.142.1.295.192.444.284.464.28.934.55,1.4.821q2.092,1.21,4.191,2.41a2.24,2.24,0,0,0,.313.163,1.449,1.449,0,0,0,.478-.2q1.127-.621,2.231-1.283A.71.71,0,0,0,50,25.113a2.826,2.826,0,0,0-.351-.253c-.772-.49-1.565-.946-2.351-1.414-1.221-.716-2.439-1.439-3.664-2.147-.044-.02-.094-.071-.142-.034M40.129,23.72c0,.331,0,.662,0,.993.021.205-.017.411.008.616q0,2.985.014,5.97c0,.034.009.076.046.089,2.059,1.185,4.11,2.385,6.18,3.552.115.063.227.133.348.184,0-.131.006-.261.02-.391.017-2.4,0-4.8,0-7.206-.927-.542-1.86-1.075-2.789-1.614-1.193-.687-2.382-1.38-3.577-2.062a2.31,2.31,0,0,0-.251-.132m13.682.244c-.781.449-1.561.9-2.344,1.344q0,.3-.007.594c-.028.411-.006.825-.033,1.236,0,.229-.007.457-.01.686-.193.124-.391.24-.59.353a.844.844,0,0,1-.236.1,1.752,1.752,0,0,1-.046-.351c-.007-.411-.006-.823-.008-1.234,0-.263-.023-.525-.023-.788a.222.222,0,0,0-.118.037c-.925.517-1.84,1.053-2.757,1.584,0,2.321-.016,4.642,0,6.962,0,.212.019.423.02.636.1-.048.2-.1.291-.155q2.289-1.3,4.567-2.614c.554-.319,1.109-.636,1.658-.964.063-.026.049-.1.06-.159.023-2.5,0-5,0-7.506C54.086,23.8,53.951,23.886,53.81,23.964Z" transform="translate(0 0)" fill="#9c9eb7"/>
    </g>
  </g>
</svg>
