<svg xmlns="http://www.w3.org/2000/svg" width="20.013" height="20" viewBox="0 0 20.013 20">
  <g id="Group_79347" data-name="Group 79347" transform="translate(-4.488 -1.743)">
    <rect id="Rectangle_6526" data-name="Rectangle 6526" width="20" height="20" transform="translate(4.5 1.743)" fill="#fff"/>
    <path id="Path_1" data-name="Path 1" d="M9.865,18.707V13.8H13.79v4.906a.984.984,0,0,0,.981.981h2.944a.984.984,0,0,0,.981-.981V11.838h1.668a.487.487,0,0,0,.324-.854L12.485,3.6a.989.989,0,0,0-1.315,0l-8.2,7.389a.489.489,0,0,0,.324.854H4.959v6.869a.984.984,0,0,0,.981.981H8.884A.984.984,0,0,0,9.865,18.707Z" transform="translate(2.198 -0.102)" fill="none" stroke="#3347ff" stroke-width="1"/>
  </g>
</svg>
