<svg xmlns="http://www.w3.org/2000/svg" width="20" height="20" viewBox="0 0 20 20">
  <g id="Group_79348" data-name="Group 79348" transform="translate(-9.561 1.719)">
    <rect id="Rectangle_6527" data-name="Rectangle 6527" width="20" height="20" transform="translate(9.561 -1.719)" fill="#fff"/>
    <path id="invoice-32" d="M15,0a1.447,1.447,0,0,1,1.445,1.445V3.373A1.447,1.447,0,0,1,15,4.818H13.522v7.773h1.445a.482.482,0,0,1,.482.482V15A1.447,1.447,0,0,1,14,16.445H4.368A1.447,1.447,0,0,1,2.923,15V4.818H1.445A1.447,1.447,0,0,1,0,3.373V1.445A1.447,1.447,0,0,1,1.445,0ZM8.223,6.777A1.447,1.447,0,0,1,9.668,8.223,1.469,1.469,0,0,1,8.7,9.6v.579a.482.482,0,1,1-.964,0V9.617a1.855,1.855,0,0,1-.71-.44A.482.482,0,1,1,7.7,8.485a.633.633,0,0,0,.691.205A.514.514,0,0,0,8.7,8.223a.482.482,0,0,0-.482-.482,1.416,1.416,0,0,1-1.03-.447,1.486,1.486,0,0,1-.416-1.03A1.45,1.45,0,0,1,7.728,4.9l.013,0V4.336a.482.482,0,0,1,.964,0V4.9a2,2,0,0,1,.881.63.482.482,0,1,1-.738.62c-.255-.3-.543-.426-.79-.335a.483.483,0,0,0-.317.453.512.512,0,0,0,.482.514Zm-3.854,8.7h8.273A1.439,1.439,0,0,1,12.559,15V2.891H3.886V15A.482.482,0,0,0,4.368,15.481Zm10.118-1.927h-.964V15a.482.482,0,1,0,.964,0Zm1-10.182V1.445A.482.482,0,0,0,15,.964H1.445a.482.482,0,0,0-.482.482V3.373a.482.482,0,0,0,.482.482H2.923V2.891H2.409a.482.482,0,0,1,0-.964H14.036a.482.482,0,1,1,0,.964h-.514v.964H15a.482.482,0,0,0,.482-.482Zm-4.368,8.255a.482.482,0,0,1,0,.964H5.332a.482.482,0,1,1,0-.964Zm0,1.927a.482.482,0,0,1,0,.964H5.332a.482.482,0,1,1,0-.964Z" transform="translate(11.561 0.281)" fill="#3347ff"/>
  </g>
</svg>
