<svg xmlns="http://www.w3.org/2000/svg" width="18.733" height="21.192" viewBox="0 0 18.733 21.192">
  <g id="filter-6535" transform="translate(-14.729 0.15)">
    <path id="Path_64857" data-name="Path 64857" d="M37.57,157.815a.464.464,0,0,1-.464-.464v-7.634a.464.464,0,1,1,.929,0v7.634A.464.464,0,0,1,37.57,157.815Z" transform="translate(-20.391 -136.924)" fill="#3347ff" stroke="#3347ff" stroke-width="0.3"/>
    <path id="Path_64858" data-name="Path 64858" d="M205.018,13.778a.464.464,0,0,1-.464-.464V.464a.464.464,0,1,1,.929,0v12.85A.464.464,0,0,1,205.018,13.778Z" transform="translate(-174.006 0)" fill="#3347ff" stroke="#3347ff" stroke-width="0.3"/>
    <path id="Path_64859" data-name="Path 64859" d="M121.294,87.715a.464.464,0,0,1-.464-.464V73.305a.464.464,0,0,1,.929,0V87.251A.464.464,0,0,1,121.294,87.715Z" transform="translate(-97.199 -66.824)" fill="#3347ff" stroke="#3347ff" stroke-width="0.3"/>
    <path id="Path_64860" data-name="Path 64860" d="M100.9,32.987a2.3,2.3,0,1,1,2.3-2.3A2.3,2.3,0,0,1,100.9,32.987Zm0-3.672a1.372,1.372,0,1,0,1.372,1.372A1.373,1.373,0,0,0,100.9,29.315Z" transform="translate(-76.808 -26.042)" fill="#3347ff" stroke="#3347ff" stroke-width="0.3"/>
    <path id="Path_64861" data-name="Path 64861" d="M17.179,109.4a2.3,2.3,0,1,1,2.3-2.3A2.3,2.3,0,0,1,17.179,109.4Zm0-3.672a1.372,1.372,0,1,0,1.372,1.372A1.373,1.373,0,0,0,17.179,105.727Z" transform="translate(0 -96.142)" fill="#3347ff" stroke="#3347ff" stroke-width="0.3"/>
    <path id="Path_64862" data-name="Path 64862" d="M184.63,160.157a2.3,2.3,0,1,1,2.3-2.3A2.3,2.3,0,0,1,184.63,160.157Zm0-3.672A1.372,1.372,0,1,0,186,157.856,1.373,1.373,0,0,0,184.63,156.484Z" transform="translate(-153.618 -142.706)" fill="#3347ff" stroke="#3347ff" stroke-width="0.3"/>
    <path id="Path_64863" data-name="Path 64863" d="M37.57,9.586a.464.464,0,0,1-.464-.464V.464a.464.464,0,0,1,.929,0V9.122A.464.464,0,0,1,37.57,9.586Z" transform="translate(-20.391 0)" fill="#3347ff" stroke="#3347ff" stroke-width="0.3"/>
    <path id="Path_64864" data-name="Path 64864" d="M121.294,3.274a.464.464,0,0,1-.464-.464V.464a.464.464,0,0,1,.929,0V2.809A.464.464,0,0,1,121.294,3.274Z" transform="translate(-97.199 0)" fill="#3347ff" stroke="#3347ff" stroke-width="0.3"/>
    <path id="Path_64865" data-name="Path 64865" d="M205.018,204.377a.464.464,0,0,1-.464-.464v-3.441a.464.464,0,0,1,.929,0v3.441A.464.464,0,0,1,205.018,204.377Z" transform="translate(-174.006 -183.485)" fill="#3347ff" stroke="#3347ff" stroke-width="0.3"/>
  </g>
</svg>
